<?xml version="1.0" encoding="UTF-8"?>
<svg width="512px" height="512px" viewBox="0 0 512 512" version="1.1" xmlns="http://www.w3.org/2000/svg" xmlns:xlink="http://www.w3.org/1999/xlink">
    <!-- Generator: Sketch 52.6 (67491) - http://www.bohemiancoding.com/sketch -->
    <title>Icon</title>
    <desc>Created with Sketch.</desc>
    <g id="Icon" stroke="none" stroke-width="1" fill="none" fill-rule="evenodd">
        <polygon id="Background" fill="#13F763" points="0 0 512 0 512 512 0 512"></polygon>
        <g id="Group" transform="translate(130.000000, 72.000000)" fill="#191B1F">
            <path d="M106.65,78.8 L106.65,35.6 L15.85,35.6 C5.85,35.6 0.25,27.6 0.25,18.4 C0.25,8.8 5.85,0.4 15.45,0.4 L235.85,0.4 C245.45,0.4 251.05,8.8 251.05,18.4 C251.05,27.6 245.05,35.6 235.85,35.6 L145.05,35.6 L145.05,78.8 L169.65,78.8 C178.05,78.8 181.65,84 181.65,92 C181.65,100 178.05,106 169.65,106 L145.05,106 L145.05,136.824976 C195.455232,146.4527 224.45,189.681155 224.45,250.8 C224.45,320.4 186.05,368.4 123.65,368.4 C57.65,368.4 19.25,322 19.25,250.8 C19.25,187.57672 51.637213,143.051213 106.65,135.831603 L106.65,106 L76.05,106 C67.65,106 63.65,100 63.65,92 C63.65,84 67.65,78.8 76.05,78.8 L106.65,78.8 Z M106.649999,167.60171 C74.2588259,175.513528 56.05,206.414496 56.05,252 C56.05,302.8 80.05,337.6 121.25,337.6 C164.85,337.6 187.65,303.6 187.65,250.4 C187.65,209.440125 172.591177,179.047845 145.050005,169.099637 L145.05,298 C145.05,308.8 136.65,314.4 125.85,314.4 C115.05,314.4 106.65,308.8 106.65,298 L106.65,167.601706 Z" id="Combined-Shape"></path>
        </g>
    </g>
</svg>