<?xml version="1.0" encoding="UTF-8"?>
<svg width="512px" height="512px" viewBox="0 0 512 512" version="1.1" xmlns="http://www.w3.org/2000/svg" xmlns:xlink="http://www.w3.org/1999/xlink">
    <!-- Generator: Sketch 52.6 (67491) - http://www.bohemiancoding.com/sketch -->
    <title>Icon</title>
    <desc>Created with Sketch.</desc>
    <g id="Icon" stroke="none" stroke-width="1" fill="none" fill-rule="evenodd">
        <path d="M130.758145,-5.28278557e-15 L381.241855,5.28278557e-15 C426.709311,-3.06945055e-15 443.196909,4.73410617 459.819131,13.6237679 C476.441353,22.5134296 489.48657,35.5586469 498.376232,52.1808691 C507.265894,68.8030913 512,85.2906895 512,130.758145 L512,381.241855 C512,426.709311 507.265894,443.196909 498.376232,459.819131 C489.48657,476.441353 476.441353,489.48657 459.819131,498.376232 C443.196909,507.265894 426.709311,512 381.241855,512 L130.758145,512 C85.2906895,512 68.8030913,507.265894 52.1808691,498.376232 C35.5586469,489.48657 22.5134296,476.441353 13.6237679,459.819131 C4.73410617,443.196909 2.04630037e-15,426.709311 -3.52185705e-15,381.241855 L3.52185705e-15,130.758145 C-2.04630037e-15,85.2906895 4.73410617,68.8030913 13.6237679,52.1808691 C22.5134296,35.5586469 35.5586469,22.5134296 52.1808691,13.6237679 C68.8030913,4.73410617 85.2906895,3.06945055e-15 130.758145,-5.28278557e-15 Z" id="Background" fill="#13F763"></path>
        <g id="Group" transform="translate(130.000000, 72.000000)" fill="#191B1F">
            <path d="M106.65,78.8 L106.65,35.6 L15.85,35.6 C5.85,35.6 0.25,27.6 0.25,18.4 C0.25,8.8 5.85,0.4 15.45,0.4 L235.85,0.4 C245.45,0.4 251.05,8.8 251.05,18.4 C251.05,27.6 245.05,35.6 235.85,35.6 L145.05,35.6 L145.05,78.8 L169.65,78.8 C178.05,78.8 181.65,84 181.65,92 C181.65,100 178.05,106 169.65,106 L145.05,106 L145.05,136.824976 C195.455232,146.4527 224.45,189.681155 224.45,250.8 C224.45,320.4 186.05,368.4 123.65,368.4 C57.65,368.4 19.25,322 19.25,250.8 C19.25,187.57672 51.637213,143.051213 106.65,135.831603 L106.65,106 L76.05,106 C67.65,106 63.65,100 63.65,92 C63.65,84 67.65,78.8 76.05,78.8 L106.65,78.8 Z M106.649999,167.60171 C74.2588259,175.513528 56.05,206.414496 56.05,252 C56.05,302.8 80.05,337.6 121.25,337.6 C164.85,337.6 187.65,303.6 187.65,250.4 C187.65,209.440125 172.591177,179.047845 145.050005,169.099637 L145.05,298 C145.05,308.8 136.65,314.4 125.85,314.4 C115.05,314.4 106.65,308.8 106.65,298 L106.65,167.601706 Z" id="Combined-Shape"></path>
        </g>
    </g>
</svg>