<?xml version="1.0" standalone="no"?>
<!DOCTYPE svg PUBLIC "-//W3C//DTD SVG 20010904//EN"
 "http://www.w3.org/TR/2001/REC-SVG-20010904/DTD/svg10.dtd">
<svg version="1.0" xmlns="http://www.w3.org/2000/svg"
 width="700.000000pt" height="700.000000pt" viewBox="0 0 700.000000 700.000000"
 preserveAspectRatio="xMidYMid meet">
<metadata>
Created by potrace 1.11, written by Peter Selinger 2001-2013
</metadata>
<g transform="translate(0.000000,700.000000) scale(0.100000,-0.100000)"
fill="#000000" stroke="none">
<path d="M1948 6001 c-98 -20 -160 -113 -159 -240 0 -68 20 -123 59 -164 62
-65 22 -62 740 -65 l652 -3 -2 -297 -3 -297 -245 -5 c-212 -4 -250 -7 -273
-23 -43 -28 -61 -73 -61 -152 0 -81 17 -121 66 -157 32 -22 40 -23 276 -26
l242 -3 -2 -206 -3 -207 -89 -17 c-582 -115 -969 -548 -1076 -1204 -30 -188
-28 -535 4 -725 76 -444 262 -770 561 -983 92 -65 268 -150 378 -181 285 -82
644 -80 902 6 105 34 257 113 343 177 299 223 488 565 559 1015 25 155 25 536
0 690 -59 369 -192 654 -407 866 -103 103 -191 166 -316 228 -73 37 -226 91
-301 107 l-33 7 0 213 0 214 199 3 c225 3 237 7 276 84 25 50 26 154 1 202
-34 66 -57 72 -278 72 l-198 0 0 300 0 299 648 3 c711 3 673 0 734 65 102 107
71 321 -55 391 -30 16 -133 17 -1567 18 -844 1 -1551 -1 -1572 -5z m1314
-4157 c46 -84 151 -131 267 -120 122 11 202 74 221 175 6 34 10 377 10 932 l0
879 38 -18 c328 -151 511 -476 542 -968 9 -150 0 -360 -20 -476 -86 -485 -333
-771 -724 -839 -99 -17 -312 -6 -399 20 -370 110 -596 444 -648 959 -23 217 6
521 65 709 98 305 286 516 539 604 l82 28 5 -927 c5 -848 6 -930 22 -958z"/>
</g>
</svg>
